<svg width="350" height="473" viewBox="0 0 350 473" fill="none" xmlns="http://www.w3.org/2000/svg">
<circle cx="175" cy="220" r="175" fill="#FED7AA"/>
<path d="M145.1 171.6C143.7 171.6 142.6 171.4 141.8 171C140 170.2 139.1 169.8 139.1 169.8C139.1 169.6 140 168.9 141.8 167.7C143.2 166.9 144.8 166.6 146.6 166.8C148.6 167 150 167 150.8 166.8C155.6 165.8 161.4 164.4 168.2 162.6C175 160.8 182.9 157.2 191.9 151.8L203.6 144.9C204.6 144.3 205.3 144.4 205.7 145.2C205.3 145.4 205.1 145.9 205.1 146.7C206.5 146.7 207.3 146.2 207.5 145.2C207.9 144 208.3 142.9 208.7 141.9H209L215.6 137.7C216.6 137.5 217.5 137.6 218.3 138C219.3 138.4 220.2 138.3 221 137.7C220.6 136.9 220.2 136.4 219.8 136.2C219.4 135.8 219.6 135.3 220.4 134.7L221.6 133.8C223.2 132.8 224.6 132.1 225.8 131.7C227.2 131.1 228.2 130 228.8 128.4C232.8 124.8 236.2 121.2 239 117.6C241.8 114 243.2 110.6 243.2 107.4C243.2 104 241.3 101.1 237.5 98.7C233.9 96.1 227.4 94.2 218 93L215.6 92.7C214.2 92.5 212.9 92.3 211.7 92.1C210.5 91.9 209.3 91.5 208.1 90.9C208.3 91.7 207.9 92.1 206.9 92.1C204.1 91.9 201.3 91.8 198.5 91.8C195.7 91.6 193 91.5 190.4 91.5C186 91.5 181.9 91.6 178.1 91.8C174.5 92 171.9 92.2 170.3 92.4L160.4 93.6C159.2 93.2 158 93.4 156.8 94.2H156.5C155.1 94.2 153.7 94.4 152.3 94.8C150.9 95 149.4 95.3 147.8 95.7C147 95.9 146.1 96.1 145.1 96.3C144.1 96.3 143.1 96.5 142.1 96.9L136.1 98.1C134.7 99.1 132.9 99.6 130.7 99.6H130.4L124.7 101.1H124.4C123.6 101.1 122.9 100.7 122.3 99.9C121.7 98.9 121.3 98 121.1 97.2C120.9 98.4 120.6 99.7 120.2 101.1C119.8 102.5 119.1 103.2 118.1 103.2L109.7 105.9C108.9 106.1 108 106.2 107 106.2C106 106.2 105 106.2 104 106.2C103 106.2 102.2 106.3 101.6 106.5C101 106.7 100.6 107.2 100.4 108C100.4 108.6 100.1 109.1 99.5 109.5C98.7 110.3 97.7 110.9 96.5 111.3C95.3 111.5 94.2 111.8 93.2 112.2H92.9C92.5 112.2 91.9 112 91.1 111.6C90.5 111.2 90 111.1 89.6 111.3C89.4 111.5 89.2 112 89 112.8C88.8 113.6 88.5 114.1 88.1 114.3V114.6C86.9 115 85.6 115.5 84.2 116.1C82.8 116.7 81.5 117.3 80.3 117.9C79.1 118.5 77.7 119.2 76.1 120C74.7 120.6 73.5 121 72.5 121.2C72.1 121.2 71.9 120.8 71.9 120C72.1 119.2 72 119 71.6 119.4C70.4 120 69.2 121.1 68 122.7C66.8 124.3 65.7 125.4 64.7 126C63.7 126.8 62.6 127.2 61.4 127.2C60.4 127.2 59.4 127.6 58.4 128.4C57.8 129 57.2 130 56.6 131.4C56.2 132.6 55.7 133.5 55.1 134.1C53.5 135.7 51.9 137.6 50.3 139.8C50.1 140.2 49.8 140.6 49.4 141C49 141.4 48.8 141.9 48.8 142.5H48.5C47.3 144.9 46.7 147.2 46.7 149.4C46.7 153.8 48.3 157 51.5 159C54.9 161 58.7 162.5 62.9 163.5C63.7 163.7 64.4 164 65 164.4C65.8 164.8 66.6 164.9 67.4 164.7C68.2 164.3 68.9 164.1 69.5 164.1C70.5 164.1 71.3 164.5 71.9 165.3L76.4 166.2C78.8 166.8 80 167.4 80 168C80 168.4 79.4 168.8 78.2 169.2C77.2 169.4 76.2 169.5 75.2 169.5C71.6 169.5 67.2 168.8 62 167.4C56.8 165.8 52.1 163.5 47.9 160.5C43.7 157.5 41.3 153.6 40.7 148.8C40.7 148.6 40.4 148.1 39.8 147.3C39.4 146.5 39.1 145.8 38.9 145.2C38.3 143.4 38 141.6 38 139.8C38 136.4 38.7 133.2 40.1 130.2C41.7 127.2 43.8 124.4 46.4 121.8C47.4 120.8 48.3 120.1 49.1 119.7C50.1 119.3 51.2 118.7 52.4 117.9C53.6 117.1 54.2 116.4 54.2 115.8C54.2 115.2 54.8 114.5 56 113.7C57.6 112.7 59.8 111.5 62.6 110.1C65.6 108.7 67.9 107.6 69.5 106.8C70.7 106.8 71.8 106.3 72.8 105.3C76.8 103.5 81 101.9 85.4 100.5C89.8 98.9 94.2 97.4 98.6 96C99.4 95.8 100.1 95.6 100.7 95.4C101.3 95.2 101.9 95.1 102.5 95.1C103.3 95.1 104.1 95.4 104.9 96C104.9 95.6 104.8 95.3 104.6 95.1C104.6 94.7 104.8 94.4 105.2 94.2C110.2 92.6 115.1 91.1 119.9 89.7C124.9 88.1 129.8 87.3 134.6 87.3H134.9C135.3 87.3 135.7 87.2 136.1 87C136.7 86.8 137.2 86.7 137.6 86.7H137.9L140 86.4C141.2 87 142.4 86.8 143.6 85.8C149 84.8 154 84.1 158.6 83.7C163.2 83.1 167.1 82.8 170.3 82.8H171.5C172.5 82.8 173.3 82.7 173.9 82.5H176.9C177.5 82.3 178.1 82.3 178.7 82.5C179.5 82.5 180.1 82.5 180.5 82.5H180.8C183.2 82.5 185.7 82.6 188.3 82.8C191.1 82.8 193.9 82.8 196.7 82.8H197C197.8 82.8 198.4 83.1 198.8 83.7C199.4 84.1 200.1 83.9 200.9 83.1C206.3 83.3 211.7 83.9 217.1 84.9C221.1 85.5 225.7 86.7 230.9 88.5C236.3 90.3 241 93.1 245 96.9C249 100.5 251 105.6 251 112.2C251 115.4 250.6 118.3 249.8 120.9C249.2 123.3 248 125.5 246.2 127.5C244.6 129.5 242.7 131.5 240.5 133.5C239.9 134.1 239.3 134.8 238.7 135.6C238.1 136.4 237.4 137.1 236.6 137.7C236.4 137.9 236 138.1 235.4 138.3C235 138.3 234.6 138.4 234.2 138.6C233.8 139 233.4 139.3 233 139.5C232.6 139.7 232.1 140 231.5 140.4C224.9 144.8 219.2 148.1 214.4 150.3C209.8 152.3 203.7 154.6 196.1 157.2C193.7 158 192 158.5 191 158.7C190 158.7 189.2 158.9 188.6 159.3C183.6 160.7 177.9 162.7 171.5 165.3C165.1 167.9 159.6 169.6 155 170.4C154.6 170.6 153.3 170.9 151.1 171.3C149.1 171.5 147.1 171.6 145.1 171.6ZM234.8 261.3C234.6 261.3 233.9 261.3 232.7 261.3C231.5 261.3 230.8 261.2 230.6 261C229.8 260.6 229.5 260 229.7 259.2C229.9 258.4 229.6 258 228.8 258C228 258 227.5 258.3 227.3 258.9C227.1 259.7 226.5 260.1 225.5 260.1H225.2C224.2 260.1 223.3 259.6 222.5 258.6C221.9 257.6 221.2 257.3 220.4 257.7C219.2 258.3 218.2 258.6 217.4 258.6C216 258.6 214.9 258.1 214.1 257.1C213.3 256.1 212.2 255.2 210.8 254.4C210.6 254.4 210.2 254.5 209.6 254.7C209.2 254.9 208.8 254.9 208.4 254.7C208.2 254.5 206.6 253.6 203.6 252C200.6 250.6 197.6 249.1 194.6 247.5C191.6 245.9 189.8 244.9 189.2 244.5C188.6 243.1 188 242.3 187.4 242.1C187 241.9 186.1 241.8 184.7 241.8C183.9 241.2 182.8 240.5 181.4 239.7C180.2 239.1 179.4 238.3 179 237.3C176.4 236.3 174.1 235.1 172.1 233.7C170.1 232.3 168 230.7 165.8 228.9C165.4 228.5 164.9 228.2 164.3 228C163.7 227.8 163.2 227.5 162.8 227.1L154.7 221.1C154.3 219.9 152.8 218.6 150.2 217.2C147.6 215.6 145.8 214.1 144.8 212.7C144.6 212.5 144.5 212.3 144.5 212.1C144.5 211.1 144 210.6 143 210.6C142.4 210.6 141.8 210.6 141.2 210.6C140.6 210.6 140.3 210.2 140.3 209.4C139.7 208 138.2 206.4 135.8 204.6C133.4 202.6 131.2 200.6 129.2 198.6C127.2 196.6 126.5 194.9 127.1 193.5C126.3 193.3 125.5 193.2 124.7 193.2C123.9 193.2 123.3 192.9 122.9 192.3C122.1 190.7 121.1 189.4 119.9 188.4C119.3 188 118.7 187.4 118.1 186.6L116.6 189.6C115.8 190.8 115 192.2 114.2 193.8C113.4 195.4 112.5 197.1 111.5 198.9L108.8 204.3C108.6 204.9 108.3 205.2 107.9 205.2C107.7 205 107.4 204.9 107 204.9C107.4 205.7 107.6 206.4 107.6 207C107.6 208.6 106.7 210.3 104.9 212.1C102.3 218.1 99.9 223.8 97.7 229.2C95.5 234.6 93.8 239.6 92.6 244.2C92.2 245.8 91.6 246.6 90.8 246.6C89.4 246.6 88.7 245.1 88.7 242.1C88.7 239.3 89.8 234.9 92 228.9L91.7 229.2C91.5 229.2 90.8 229.4 89.6 229.8C88.4 230.2 87.6 230.3 87.2 230.1C84.6 230.1 83.3 229.2 83.3 227.4C83.3 222.6 84.3 217.6 86.3 212.4L94.1 192C94.5 191.4 94.7 190.8 94.7 190.2C94.9 189.6 95.1 189 95.3 188.4L95.6 188.1V187.8L96.8 181.5C97.2 179.7 97.4 178.1 97.4 176.7C97.6 175.3 97.7 173.6 97.7 171.6C97.7 171 98 170.6 98.6 170.4C98.6 169 98.7 167.7 98.9 166.5C99.1 165.1 99.2 163.7 99.2 162.3V160.8C99 160.6 98.9 160.2 98.9 159.6C98.9 159.2 98.8 158.8 98.6 158.4C98.6 158 98.6 157.6 98.6 157.2C98.6 157 98.6 156.9 98.6 156.9C98.8 156.7 98.9 156.5 98.9 156.3C99.3 153.9 100 151.7 101 149.7C102.2 147.7 103.5 147.2 104.9 148.2C105.3 148.4 106 149.6 107 151.8C108.2 154 109.2 155.6 110 156.6C110.8 158.6 111.8 160.5 113 162.3C114.2 163.9 115.2 165.7 116 167.7C116.6 168.7 116.9 169.5 116.9 170.1C116.9 170.5 117.6 170.9 119 171.3C124.8 160.9 130.6 151 136.4 141.6C142.4 132 148 124.6 153.2 119.4L154.1 118.8L155 117.3C155 117.3 155.2 117.2 155.6 117C156 116.8 156.3 116.9 156.5 117.3C156.5 117.5 156.3 117.9 155.9 118.5C155.7 119.1 155.6 119.5 155.6 119.7C156.2 120.7 156.9 120.8 157.7 120C157.9 119.6 157.9 118.7 157.7 117.3C157.5 115.9 157.5 115.2 157.7 115.2C158.1 115 158.3 115 158.3 115.2C158.5 115.4 158.7 115.5 158.9 115.5C159.3 115.5 159.5 115.2 159.5 114.6C159.5 114 159.6 113.6 159.8 113.4C162 112.6 164 112.2 165.8 112.2C166.8 112.2 168.2 112.7 170 113.7C172 114.7 173 116.1 173 117.9C173 118.9 172.5 120.1 171.5 121.5C171.3 121.7 171.1 122.1 170.9 122.7C170.7 123.1 170.4 123.5 170 123.9C169.8 124.1 169.6 124.2 169.4 124.2C169.4 124 169.2 124 168.8 124.2C168.6 124.4 168.3 124.5 167.9 124.5C167.7 124.3 167.4 124.2 167 124.2C166.6 124.2 166.5 124.5 166.7 125.1C167.1 125.7 167.2 126.1 167 126.3C166.8 126.5 166.6 126.5 166.4 126.3C166.2 126.1 165.9 126.2 165.5 126.6C165.3 126.8 165.4 127 165.8 127.2C166.4 127.2 166.5 127.4 166.1 127.8C164.9 129 163.4 130.3 161.6 131.7C160 132.9 158.4 134.1 156.8 135.3C156.6 135.5 156.4 135.5 156.2 135.3C156 134.9 155.8 134.8 155.6 135L153.5 138C151.5 140 149.5 142.1 147.5 144.3C145.5 146.5 143.4 149 141.2 151.8C140.6 153 139.9 154.1 139.1 155.1C138.3 156.1 137.2 156.5 135.8 156.3C135.8 156.5 136 156.8 136.4 157.2C136.8 157.4 136.8 157.8 136.4 158.4C132 164.4 127.9 170.6 124.1 177L130.4 184.8C131 185.6 131.3 186.5 131.3 187.5C131.3 188.3 131.5 188.8 131.9 189C132.3 189 132.6 188.9 132.8 188.7C133.2 188.5 133.5 188.4 133.7 188.4C134.3 188.4 134.8 188.9 135.2 189.9C135.8 190.7 136.4 191.4 137 192C137.8 192.8 138.6 193.6 139.4 194.4C140.4 195.2 141.4 196.1 142.4 197.1V197.4C143.2 198 144.5 199.1 146.3 200.7C148.1 202.3 149.8 203.9 151.4 205.5C153 206.9 153.9 208 154.1 208.8C154.5 209.6 155.1 210.1 155.9 210.3C156.7 210.5 157.4 210.8 158 211.2C159.6 212.4 161.2 213.6 162.8 214.8C164.6 216 166.3 217.3 167.9 218.7C168.5 219.1 168.7 219.5 168.5 219.9C168.5 220.3 168.6 220.7 168.8 221.1C169.2 221.3 169.9 221.6 170.9 222C172.1 222.2 173 222.5 173.6 222.9C178.2 225.9 182.8 228.8 187.4 231.6C192 234.6 196.8 237.4 201.8 240C207 242.6 212.3 244.9 217.7 246.9C223.1 248.9 228.8 249.9 234.8 249.9C239.6 249.9 244.2 249 248.6 247.2C253.2 245.4 255.5 242.1 255.5 237.3C255.5 235.7 255.2 234 254.6 232.2C254.4 231.2 254 230.1 253.4 228.9C253 227.7 252.3 226.8 251.3 226.2C250.7 225 249.6 224.2 248 223.8C247 222.8 246.1 221.8 245.3 220.8C244.5 219.6 243.3 219.1 241.7 219.3C241.1 218.7 240.8 218.1 240.8 217.5C240.8 216.7 241.1 216.1 241.7 215.7C242.5 215.1 243.4 215 244.4 215.4C245.8 216.2 246.9 217.3 247.7 218.7C248.7 219.9 250 220.6 251.6 220.8L253.1 222.3C253.7 223.3 254.3 224.1 254.9 224.7C255.7 225.3 256.4 226.1 257 227.1C257.6 227.9 258.2 229 258.8 230.4C259.6 232 260.1 233.3 260.3 234.3C260.7 235.1 260.8 235.9 260.6 236.7C260.6 237.5 260.9 238.4 261.5 239.4C261.9 245.6 259.9 250.6 255.5 254.4C251.1 258.4 246 260.6 240.2 261C239.6 260.6 239 260.3 238.4 260.1C238 259.9 237.6 259.8 237.2 259.8C236.6 259.8 235.8 260.3 234.8 261.3ZM95.9 219.3C96.3 219.5 96.5 219.5 96.5 219.3C96.7 218.9 96.8 218.7 96.8 218.7C97.2 218.1 97.4 217.5 97.4 216.9C97.4 216.1 97.5 215.4 97.7 214.8C101.3 205.8 105.9 196 111.5 185.4C111.9 184.6 112.3 184.4 112.7 184.8C113.3 185 113.7 184.9 113.9 184.5C114.3 184.1 114.4 183.6 114.2 183C114.2 182.4 114.2 181.9 114.2 181.5C114 181.1 113.7 180.8 113.3 180.6C112.9 180.4 112.6 180.1 112.4 179.7C111.6 177.5 110.5 176.1 109.1 175.5C107.9 174.7 107 173.5 106.4 171.9C105.6 170.1 104.8 168.8 104 168C103.4 167 102.6 165.8 101.6 164.4L100.7 174.6C100.5 176.6 100.2 178.9 99.8 181.5C99.6 184.1 99.1 186.5 98.3 188.7C98.1 189.3 98 190.2 98 191.4V194.7C98 195.1 97.9 195.6 97.7 196.2C97.7 196.8 97.7 197.4 97.7 198L97.1 204C96.9 206 96.6 208.1 96.2 210.3C95.8 212.3 95.6 214.2 95.6 216C95.6 217.6 95.7 218.7 95.9 219.3Z" fill="black"/>
<path d="M164.49 353.21C163.17 352.77 161.74 352.44 160.2 352.22C158.88 352 157.45 351.67 155.91 351.23L157.56 352.22C156.68 352.22 155.8 352 154.92 351.56C154.26 351.34 153.6 351.34 152.94 351.56L146.67 349.91L146.34 349.58C145.46 348.7 144.58 347.93 143.7 347.27C142.82 346.61 141.61 346.5 140.07 346.94C140.51 347.16 140.95 347.27 141.39 347.27C141.83 347.27 142.16 347.49 142.38 347.93H141.72C140.84 347.93 140.18 347.71 139.74 347.27C139.3 346.83 138.75 346.39 138.09 345.95C134.79 343.97 131.82 341.66 129.18 339.02V338.69C128.3 337.59 127.64 336.49 127.2 335.39C126.76 334.07 125.99 333.08 124.89 332.42H124.56C123.9 331.1 123.24 329.67 122.58 328.13C122.14 326.37 121.7 324.72 121.26 323.18C121.26 322.52 121.15 321.97 120.93 321.53C120.93 320.87 120.93 320.21 120.93 319.55C120.93 318.67 120.93 317.9 120.93 317.24C121.15 316.36 121.37 315.48 121.59 314.6C120.49 315.04 119.94 314.71 119.94 313.61C119.72 311.19 119.61 308.77 119.61 306.35C119.83 303.93 120.16 301.29 120.6 298.43L121.59 293.48C122.03 292.38 122.69 291.61 123.57 291.17C124.45 290.73 124.78 289.96 124.56 288.86C124.34 288.86 124.12 288.97 123.9 289.19C123.68 289.41 123.35 289.52 122.91 289.52C122.91 289.52 122.8 289.52 122.58 289.52C122.58 289.3 122.58 289.08 122.58 288.86H122.91V288.53C122.69 288.31 122.69 288.2 122.91 288.2C123.13 288.2 123.13 288.09 122.91 287.87V287.54C122.91 286.44 123.24 285.34 123.9 284.24C124.56 282.92 125.11 281.6 125.55 280.28C125.99 279.18 126.65 278.19 127.53 277.31C128.63 276.43 128.96 275.33 128.52 274.01H127.53C128.19 273.57 128.52 273.13 128.52 272.69L128.85 272.36L132.15 265.43H132.48C134.24 265.43 135.01 264.99 134.79 264.11C134.79 263.23 134.79 262.24 134.79 261.14V260.81L137.43 256.52C138.75 255.86 139.63 254.87 140.07 253.55C140.51 252.01 141.17 250.8 142.05 249.92C142.49 248.82 143.15 247.94 144.03 247.28C144.91 246.4 145.68 245.41 146.34 244.31C147.66 242.55 148.98 240.9 150.3 239.36C151.62 237.6 153.05 235.95 154.59 234.41C155.69 233.97 156.46 233.42 156.9 232.76C157.34 232.1 157.89 231.33 158.55 230.45C158.55 230.23 158.55 230.12 158.55 230.12C158.77 230.12 158.88 230.01 158.88 229.79C159.54 228.91 160.42 228.36 161.52 228.14C162.62 227.92 163.39 227.26 163.83 226.16C164.27 225.06 164.93 224.07 165.81 223.19C167.57 221.43 169.44 219.78 171.42 218.24C173.4 216.48 175.38 214.83 177.36 213.29C178.68 213.07 179.67 212.85 180.33 212.63C180.99 212.19 181.32 211.31 181.32 209.99H181.65C184.07 208.23 186.49 206.58 188.91 205.04C191.33 203.5 193.64 202.07 195.84 200.75C197.6 199.65 199.25 198.66 200.79 197.78C202.55 196.9 204.2 196.02 205.74 195.14H206.73C207.61 195.14 208.27 194.92 208.71 194.48C209.15 194.04 209.7 193.49 210.36 192.83H210.69C226.97 185.57 242.04 181.94 255.9 181.94C257.66 181.94 259.53 182.05 261.51 182.27C263.49 182.27 265.36 182.38 267.12 182.6C277.46 183.92 285.27 187.33 290.55 192.83C295.83 198.11 298.47 203.94 298.47 210.32C298.47 212.52 298.14 214.83 297.48 217.25C299.68 215.71 301.66 214.17 303.42 212.63C305.18 211.09 306.61 209.33 307.71 207.35C308.15 206.69 308.7 206.47 309.36 206.69C310.02 206.69 310.13 207.02 309.69 207.68C309.03 209.66 307.6 211.86 305.4 214.28C303.2 216.48 300.78 218.46 298.14 220.22C298.14 220.44 297.59 221.21 296.49 222.53C295.39 223.63 294.95 224.4 295.17 224.84C295.17 225.06 294.84 225.5 294.18 226.16C293.74 226.6 293.41 227.04 293.19 227.48L290.88 230.45C290.88 230.45 290.88 230.56 290.88 230.78C290.88 230.78 290.77 230.89 290.55 231.11C290.55 231.11 290.11 231.33 289.23 231.77C288.79 232.21 288.13 232.98 287.25 234.08C286.59 235.18 285.71 235.95 284.61 236.39L283.29 237.05C283.07 237.27 282.85 237.6 282.63 238.04C282.41 238.26 282.08 238.59 281.64 239.03C280.76 239.91 279.11 241.01 276.69 242.33C274.49 243.43 272.84 244.42 271.74 245.3C271.74 245.3 271.52 245.41 271.08 245.63C270.64 245.85 270.09 246.18 269.43 246.62L268.44 246.95C268.22 246.95 267.78 247.17 267.12 247.61C266.68 248.05 266.35 248.38 266.13 248.6C265.91 248.82 265.58 248.93 265.14 248.93C264.92 248.93 264.59 249.15 264.15 249.59C263.93 249.81 263.6 249.92 263.16 249.92C262.72 249.92 262.28 250.14 261.84 250.58L256.89 251.9C256.67 252.12 256.01 252.56 254.91 253.22C254.03 253.66 253.48 253.88 253.26 253.88H252.6C252.38 253.88 252.16 253.99 251.94 254.21C251.94 254.43 251.72 254.54 251.28 254.54C251.06 254.76 250.73 254.87 250.29 254.87C250.07 254.65 249.74 254.65 249.3 254.87C249.08 254.87 248.75 255.09 248.31 255.53C248.09 255.75 247.87 255.86 247.65 255.86H246.66L244.68 256.85C243.8 257.07 242.81 257.18 241.71 257.18C240.83 257.18 239.84 257.4 238.74 257.84C238.52 257.84 238.08 257.73 237.42 257.51C236.98 257.29 236.54 257.18 236.1 257.18C234.12 257.84 232.14 258.17 230.16 258.17C229.94 258.39 229.72 258.39 229.5 258.17C229.5 257.95 229.39 257.84 229.17 257.84C228.95 257.84 228.84 257.95 228.84 258.17C228.84 258.17 228.73 258.17 228.51 258.17C228.51 258.17 228.18 258.17 227.52 258.17C227.08 257.95 226.75 257.73 226.53 257.51H226.2C225.76 257.51 225.43 257.4 225.21 257.18C224.99 256.96 224.77 256.85 224.55 256.85C224.55 256.85 224.55 256.96 224.55 257.18C224.55 257.18 224.44 257.18 224.22 257.18C224 257.18 223.78 257.07 223.56 256.85C223.12 256.85 222.35 256.74 221.25 256.52C220.37 256.08 219.82 255.75 219.6 255.53C218.94 255.75 218.28 255.53 217.62 254.87C217.18 254.43 216.96 254.32 216.96 254.54L214.65 253.55C214.65 253.33 214.54 253.22 214.32 253.22C214.32 253 214.32 252.89 214.32 252.89H213.66C213.22 252.45 212.89 252.23 212.67 252.23C212.45 251.57 212.23 251.13 212.01 250.91C211.79 250.69 211.46 250.36 211.02 249.92C211.02 249.04 210.91 248.6 210.69 248.6C210.69 248.16 210.36 247.5 209.7 246.62C209.26 245.52 209.04 244.53 209.04 243.65L208.71 243.32C207.83 242.44 207.61 240.9 208.05 238.7C208.27 237.6 208.16 237.16 207.72 237.38C207.28 237.38 207.39 236.72 208.05 235.4L209.7 232.1C209.7 231.88 209.59 231.77 209.37 231.77C209.15 231.55 209.15 231.33 209.37 231.11C209.37 230.89 209.37 230.78 209.37 230.78C209.59 230.56 209.7 230.34 209.7 230.12C209.92 229.9 210.03 229.46 210.03 228.8C210.03 228.36 210.14 228.03 210.36 227.81C210.36 227.59 210.58 227.15 211.02 226.49C211.68 225.61 212.12 225.06 212.34 224.84L214.32 222.53C214.54 222.31 214.87 222.09 215.31 221.87C215.75 221.65 216.08 221.32 216.3 220.88C216.74 220.44 217.18 220.22 217.62 220.22C218.28 220 218.72 219.67 218.94 219.23C219.6 218.13 220.37 217.58 221.25 217.58H221.91C222.79 217.58 223.23 217.8 223.23 218.24C223.23 219.34 222.57 220.22 221.25 220.88C220.37 221.76 219.93 222.2 219.93 222.2C219.93 221.98 219.6 222.2 218.94 222.86C218.94 223.08 218.72 223.19 218.28 223.19C218.06 223.19 217.95 223.41 217.95 223.85C217.73 223.85 217.73 223.96 217.95 224.18C218.17 224.4 218.17 224.73 217.95 225.17C217.95 226.05 217.95 226.49 217.95 226.49C217.73 226.71 217.73 227.04 217.95 227.48C218.17 227.7 218.17 228.03 217.95 228.47C217.73 228.47 217.51 228.58 217.29 228.8L216.96 233.42C216.96 233.42 217.07 234.08 217.29 235.4C217.51 236.5 217.51 237.16 217.29 237.38V239.03C217.29 239.69 218.28 240.35 220.26 241.01C220.48 241.23 220.7 241.34 220.92 241.34C221.36 241.12 221.69 241.12 221.91 241.34C224.77 242.22 226.64 242.88 227.52 243.32C228.4 243.54 230.38 243.65 233.46 243.65H236.1C237.2 243.65 238.19 243.54 239.07 243.32C239.29 243.32 239.29 243.43 239.07 243.65C239.07 243.65 239.18 243.65 239.4 243.65L243.36 242.99C243.58 242.77 243.8 242.66 244.02 242.66C244.24 242.44 244.46 242.44 244.68 242.66C244.9 242.66 245.12 242.66 245.34 242.66L252.6 240.68C253.92 240.24 255.13 239.8 256.23 239.36C257.55 238.7 258.87 238.26 260.19 238.04C262.17 237.6 264.26 236.83 266.46 235.73C268.66 234.41 270.86 233.31 273.06 232.43C273.06 232.21 274.05 231.55 276.03 230.45C278.23 229.35 280.54 228.14 282.96 226.82L283.95 223.52C284.39 222.42 285.05 221.87 285.93 221.87C286.81 221.65 287.47 221.21 287.91 220.55C287.25 220.11 286.7 219.78 286.26 219.56C285.82 219.34 285.82 218.79 286.26 217.91V217.58L287.91 212.3C288.79 209.66 289.23 207.13 289.23 204.71C289.23 199.21 287.14 195.25 282.96 192.83C278.78 190.41 273.83 189.2 268.11 189.2C267.23 189.2 266.24 189.2 265.14 189.2C264.26 189.2 263.27 189.31 262.17 189.53C260.19 189.75 258.21 190.08 256.23 190.52C254.25 190.96 252.16 191.4 249.96 191.84H249.3C248.42 191.84 247.65 192.06 246.99 192.5C246.33 192.72 245.67 193.05 245.01 193.49C241.93 194.37 238.52 195.58 234.78 197.12C232.8 197.56 231.37 198.22 230.49 199.1C229.61 199.54 229.06 199.76 228.84 199.76V200.09C227.52 200.53 226.42 200.75 225.54 200.75C225.1 200.75 224.55 200.75 223.89 200.75C223.23 200.53 222.57 200.42 221.91 200.42C222.35 200.64 222.68 200.75 222.9 200.75C223.12 200.75 223.34 200.86 223.56 201.08C223.78 201.74 223.56 202.18 222.9 202.4C222.46 202.62 222.13 202.95 221.91 203.39H221.58C221.36 203.61 220.92 203.83 220.26 204.05C219.82 204.27 219.38 204.6 218.94 205.04C216.96 205.26 215.2 205.92 213.66 207.02C212.34 208.12 211.13 209.33 210.03 210.65H209.7L202.11 215.93C200.35 216.81 198.81 217.91 197.49 219.23C194.63 221.43 191.77 223.74 188.91 226.16C186.05 228.58 183.19 231 180.33 233.42H179.67C178.57 233.42 177.91 233.75 177.69 234.41C177.69 234.85 177.47 235.62 177.03 236.72H176.7C176.04 237.6 175.27 238.37 174.39 239.03C173.51 239.25 172.96 239.69 172.74 240.35C172.52 241.01 172.08 241.67 171.42 242.33L169.11 244.64C168.23 244.42 167.24 244.09 166.14 243.65C165.26 242.99 164.27 242.66 163.17 242.66C163.17 242.66 163.06 242.77 162.84 242.99C162.84 242.99 162.84 243.21 162.84 243.65C164.16 243.87 165.26 244.42 166.14 245.3C167.02 246.18 166.91 247.17 165.81 248.27L165.15 248.93C164.27 249.81 163.17 250.14 161.85 249.92C160.75 249.7 159.76 250.14 158.88 251.24C159.32 251.46 159.87 251.57 160.53 251.57C161.19 251.57 161.52 252.12 161.52 253.22C160.42 254.54 159.32 255.86 158.22 257.18C157.34 258.5 156.35 259.82 155.25 261.14C154.37 262.02 153.6 263.01 152.94 264.11C152.28 264.99 151.4 265.76 150.3 266.42C150.08 266.64 149.97 266.97 149.97 267.41C150.19 267.63 150.19 267.85 149.97 268.07V268.4L145.02 276.32C143.92 276.98 143.04 277.64 142.38 278.3C141.72 278.96 141.39 279.95 141.39 281.27C142.27 280.39 142.71 280.06 142.71 280.28V280.61C142.71 281.05 142.49 281.49 142.05 281.93C141.61 282.15 141.28 282.48 141.06 282.92L139.41 286.88C137.21 291.94 135.67 296.45 134.79 300.41C133.47 304.59 132.81 308.55 132.81 312.29C132.59 313.17 132.15 314.05 131.49 314.93C131.05 315.59 131.16 316.36 131.82 317.24C132.26 317.68 132.59 318.01 132.81 318.23C133.03 318.23 133.14 318.67 133.14 319.55C133.14 320.65 133.25 321.42 133.47 321.86V322.85C133.47 323.51 133.25 324.17 132.81 324.83C132.37 325.49 132.26 326.15 132.48 326.81C132.7 327.03 133.14 327.14 133.8 327.14C134.46 326.92 134.9 327.03 135.12 327.47L137.1 331.1C137.76 331.54 138.2 332.2 138.42 333.08C138.64 333.96 138.86 334.62 139.08 335.06C139.52 335.5 140.07 335.94 140.73 336.38C141.39 336.6 141.83 337.04 142.05 337.7C142.05 337.92 141.94 338.14 141.72 338.36C141.72 338.36 141.72 338.58 141.72 339.02C142.82 338.58 142.93 337.7 142.05 336.38C143.37 337.26 143.37 338.14 142.05 339.02C142.49 339.02 142.93 339.02 143.37 339.02C143.81 338.8 144.25 338.69 144.69 338.69C145.57 338.69 146.45 339.02 147.33 339.68C150.85 341.44 154.81 342.65 159.21 343.31C163.83 344.19 168.78 344.63 174.06 344.63C180 344.63 186.38 344.08 193.2 342.98C200.02 342.1 206.84 340.89 213.66 339.35V339.02C214.1 339.02 214.43 339.13 214.65 339.35C214.87 339.35 215.09 339.35 215.31 339.35C216.41 339.35 217.4 338.91 218.28 338.03L221.91 337.04C223.67 335.94 225.32 335.06 226.86 334.4C228.4 333.74 230.05 333.63 231.81 334.07C232.25 334.29 232.25 334.51 231.81 334.73C231.59 334.73 231.48 334.95 231.48 335.39C231.92 335.17 232.25 334.84 232.47 334.4C232.69 333.96 233.02 333.63 233.46 333.41L235.44 332.75C236.98 332.53 238.3 332.2 239.4 331.76C240.5 331.1 241.71 330.55 243.03 330.11L246.66 328.79C247.1 329.01 247.54 329.12 247.98 329.12C248.86 329.12 249.52 328.9 249.96 328.46C250.4 327.8 251.06 327.14 251.94 326.48C252.16 326.48 252.71 326.26 253.59 325.82C254.69 325.38 255.9 325.05 257.22 324.83C258.54 324.39 259.64 323.73 260.52 322.85H260.85C264.15 321.31 267.34 319.77 270.42 318.23C273.5 316.69 276.47 315.15 279.33 313.61L288.24 308.66C289.34 307.78 290.22 307.01 290.88 306.35C291.54 305.69 292.42 305.36 293.52 305.36L293.85 305.03C295.39 303.49 297.04 302.28 298.8 301.4C300.56 300.3 301.99 299.2 303.09 298.1C304.85 296.56 306.17 295.79 307.05 295.79C307.71 295.79 308.04 296.23 308.04 297.11C308.04 298.21 307.38 299.42 306.06 300.74C304.08 302.5 301.88 304.48 299.46 306.68C297.04 308.88 294.29 311.19 291.21 313.61C290.11 314.49 288.9 315.04 287.58 315.26C286.48 315.48 285.71 316.25 285.27 317.57C283.95 318.45 282.52 319.33 280.98 320.21C279.66 321.09 278.12 321.97 276.36 322.85C274.38 323.95 272.29 325.05 270.09 326.15C268.11 327.25 265.91 328.35 263.49 329.45C262.83 329.45 262.06 329.45 261.18 329.45C260.52 329.23 259.86 329.12 259.2 329.12C257.66 329.12 256.56 329.45 255.9 330.11C255.9 330.11 255.9 330.22 255.9 330.44C255.9 330.44 256.01 330.66 256.23 331.1C256.67 331.1 257.11 331.1 257.55 331.1C257.99 330.88 258.43 330.88 258.87 331.1C258.87 331.1 258.87 331.21 258.87 331.43C258.87 331.65 258.65 331.76 258.21 331.76C257.33 332.2 256.67 332.42 256.23 332.42V332.75L253.92 333.74H253.59C252.71 334.62 252.05 334.4 251.61 333.08C250.95 333.3 250.29 333.74 249.63 334.4C249.19 335.06 248.64 335.61 247.98 336.05L245.67 337.04C244.79 337.26 243.91 337.48 243.03 337.7C242.15 337.7 241.49 338.03 241.05 338.69H240.72C239.84 339.13 238.74 339.57 237.42 340.01C236.32 340.23 235.22 340.56 234.12 341V341.33H232.47C231.37 341.33 230.16 341.22 228.84 341C227.52 340.56 226.2 340.34 224.88 340.34C225.32 341 226.09 341.33 227.19 341.33C228.29 341.55 228.62 342.1 228.18 342.98C228.18 343.2 228.07 343.31 227.85 343.31L219.27 345.62V345.95C218.39 346.17 217.4 346.28 216.3 346.28C215.42 346.5 214.54 346.83 213.66 347.27C205.08 349.47 196.61 351.01 188.25 351.89C179.89 352.77 172.08 353.21 164.82 353.21H164.49ZM235.44 254.87C235.66 254.65 236.1 254.54 236.76 254.54C237.64 254.32 238.3 254.1 238.74 253.88L246 253.22C246.22 253.22 246.44 253.11 246.66 252.89C246.88 252.67 247.1 252.56 247.32 252.56C247.54 252.34 247.87 252.23 248.31 252.23C249.41 251.35 249.96 251.24 249.96 251.9C249.96 252.34 250.4 252.23 251.28 251.57C251.5 251.35 251.83 251.24 252.27 251.24C252.71 250.8 253.04 250.58 253.26 250.58C253.7 250.36 254.03 250.14 254.25 249.92C254.69 249.7 254.91 249.59 254.91 249.59C254.91 249.37 255.13 249.26 255.57 249.26H255.9C256.34 249.26 257.11 248.93 258.21 248.27C259.31 247.61 259.86 247.28 259.86 247.28C260.08 247.28 260.3 247.06 260.52 246.62C260.96 246.18 261.29 245.96 261.51 245.96C261.73 245.74 262.06 245.63 262.5 245.63C262.94 245.41 263.16 245.19 263.16 244.97C263.6 244.75 264.04 244.53 264.48 244.31C264.92 244.09 265.25 243.98 265.47 243.98C265.69 243.76 266.13 243.43 266.79 242.99C267.67 242.55 268.11 242.22 268.11 242C268.55 241.56 268.99 241.23 269.43 241.01C270.09 240.79 270.53 240.57 270.75 240.35C271.41 240.13 272.95 239.03 275.37 237.05C277.79 234.85 279.88 232.32 281.64 229.46C282.08 229.02 281.09 229.57 278.67 231.11C276.47 232.43 275.26 233.2 275.04 233.42C274.82 233.42 274.38 233.75 273.72 234.41C273.06 234.85 272.62 235.07 272.4 235.07L271.74 235.73H270.75L270.42 236.06C270.42 236.06 269.98 236.28 269.1 236.72C268.88 236.72 268.44 236.94 267.78 237.38C267.12 237.82 266.68 238.04 266.46 238.04C266.24 238.04 266.02 238.15 265.8 238.37C265.58 238.37 265.36 238.37 265.14 238.37C264.26 239.03 262.94 239.69 261.18 240.35C259.64 241.01 258.54 241.34 257.88 241.34H257.55C257.11 241.34 256.67 241.56 256.23 242L255.9 242.33L254.25 242.66C253.81 242.88 253.26 243.1 252.6 243.32C251.94 243.54 251.39 243.65 250.95 243.65C250.73 243.87 250.62 243.98 250.62 243.98C250.62 243.76 250.62 243.65 250.62 243.65C250.18 244.09 249.63 244.31 248.97 244.31C248.75 244.31 248.64 244.31 248.64 244.31C248.64 244.09 248.53 243.98 248.31 243.98C248.09 243.98 247.65 244.31 246.99 244.97H245.34C245.34 245.19 245.12 245.3 244.68 245.3H244.35C244.13 245.3 243.8 245.41 243.36 245.63C242.92 245.85 242.59 245.96 242.37 245.96C242.15 245.96 242.04 246.07 242.04 246.29C242.04 246.29 241.93 246.29 241.71 246.29C241.71 246.07 241.6 245.96 241.38 245.96H241.05L239.07 246.62H238.08C237.42 246.62 236.65 246.51 235.77 246.29C235.11 246.07 234.34 246.07 233.46 246.29C233.24 246.29 233.13 246.4 233.13 246.62C233.13 246.62 233.02 246.62 232.8 246.62H232.14C232.14 246.62 232.03 246.62 231.81 246.62C231.81 246.62 231.7 246.73 231.48 246.95C231.48 246.73 231.37 246.62 231.15 246.62H229.17C229.17 246.4 229.06 246.29 228.84 246.29C228.62 246.29 228.4 246.4 228.18 246.62C227.96 246.62 227.74 246.62 227.52 246.62C226.2 246.62 225.21 246.18 224.55 245.3C223.89 244.42 222.68 244.2 220.92 244.64C220.92 244.42 220.81 244.31 220.59 244.31C220.37 244.09 220.26 243.87 220.26 243.65H219.93C219.49 244.09 219.27 244.42 219.27 244.64C219.05 244.86 219.05 245.19 219.27 245.63C219.71 245.85 219.82 246.18 219.6 246.62C219.82 246.84 219.93 247.17 219.93 247.61C220.15 247.83 220.37 247.94 220.59 247.94C220.59 248.6 220.92 249.26 221.58 249.92C221.58 250.14 221.69 250.36 221.91 250.58C222.35 250.8 222.46 250.91 222.24 250.91C222.46 251.13 222.68 251.24 222.9 251.24C223.12 251.24 223.23 251.46 223.23 251.9L224.22 252.89H224.55C226.53 253.77 228.51 254.43 230.49 254.87C232.69 255.09 234.34 255.09 235.44 254.87Z" fill="black"/>
</svg>
